<?xml version="1.0" encoding="UTF-8"?>
<svg xmlns="http://www.w3.org/2000/svg" xmlns:xlink="http://www.w3.org/1999/xlink" viewBox="0 0 24 24" width="24px" height="24px">
<g id="surface13836043">
<path style=" stroke:none;fill-rule:nonzero;fill:rgb(100%,100%,100%);fill-opacity:1;" d="M 21.375 16.679688 C 20.855469 17.828125 20.605469 18.34375 19.941406 19.359375 C 19.007812 20.773438 17.695312 22.546875 16.070312 22.554688 C 14.625 22.570312 14.25 21.613281 12.289062 21.628906 C 10.328125 21.640625 9.917969 22.574219 8.472656 22.558594 C 6.84375 22.546875 5.601562 20.953125 4.671875 19.535156 C 2.0625 15.566406 1.789062 10.914062 3.398438 8.4375 C 4.539062 6.683594 6.339844 5.652344 8.035156 5.652344 C 9.757812 5.652344 10.84375 6.597656 12.269531 6.597656 C 13.652344 6.597656 14.492188 5.648438 16.488281 5.648438 C 17.996094 5.648438 19.589844 6.46875 20.730469 7.886719 C 17.003906 9.933594 17.609375 15.253906 21.375 16.679688 Z M 14.972656 4.066406 C 15.699219 3.132812 16.25 1.820312 16.050781 0.480469 C 14.867188 0.5625 13.484375 1.316406 12.675781 2.296875 C 11.941406 3.1875 11.335938 4.511719 11.570312 5.792969 C 12.863281 5.832031 14.199219 5.0625 14.972656 4.066406 Z M 14.972656 4.066406 "/>
</g>
</svg>
