<?xml version="1.0" encoding="UTF-8"?>
<svg xmlns="http://www.w3.org/2000/svg" xmlns:xlink="http://www.w3.org/1999/xlink" viewBox="0 0 24 24" width="24px" height="24px">
<g id="surface13838338">
<path style=" stroke:none;fill-rule:nonzero;fill:rgb(100%,100%,100%);fill-opacity:1;" d="M 21 18.5 C 21 19.882812 19.882812 21 18.5 21 L 5.5 21 C 4.121094 21 3 19.882812 3 18.5 L 3 5.5 C 3 4.117188 4.121094 3 5.5 3 L 18.5 3 C 19.882812 3 21 4.117188 21 5.5 Z M 21 18.5 "/>
<path style=" stroke:none;fill-rule:nonzero;fill:rgb(23.137255%,34.901962%,59.607846%);fill-opacity:1;" d="M 17.183594 12.5 L 15.5 12.5 L 15.5 19 L 13 19 L 13 12.5 L 11.5 12.5 L 11.5 10.5 L 13 10.5 L 13 9.296875 C 13 7.539062 13.730469 6.5 15.796875 6.5 L 17.5 6.5 L 17.5 8.5 L 16.355469 8.5 C 15.550781 8.5 15.5 8.800781 15.5 9.363281 L 15.5 10.5 L 17.5 10.5 Z M 17.183594 12.5 "/>
</g>
</svg>
